<svg width="429" height="267" viewBox="0 0 429 267" fill="none" xmlns="http://www.w3.org/2000/svg">
<rect x="147.536" y="70.7107" width="95" height="95" transform="rotate(-45 147.536 70.7107)" stroke="#293439" stroke-opacity="0.8" stroke-width="5"/>
<line x1="191.053" y1="93.3713" x2="214.686" y2="69.7387" stroke="#293439" stroke-opacity="0.8" stroke-width="5"/>
<line x1="236.564" y1="95.5017" x2="213.369" y2="72.3069" stroke="#293439" stroke-opacity="0.8" stroke-width="5"/>
<path d="M5.816 200.736C4.856 200.736 4.344 200.576 4.28 200.256C4.216 199.936 4.184 199.392 4.184 198.624V162.624C4.184 162.432 4.184 162.08 4.184 161.568C4.248 161.056 4.632 160.8 5.336 160.8H14.264C18.296 160.8 21.624 161.472 24.248 162.816C26.872 164.096 28.792 166.144 30.008 168.96C31.288 171.712 31.928 175.328 31.928 179.808C31.928 183.776 31.448 187.104 30.488 189.792C29.592 192.416 28.312 194.528 26.648 196.128C25.048 197.728 23.192 198.912 21.08 199.68C18.968 200.384 16.728 200.736 14.36 200.736H5.816ZM3.128 228V162.336C3.128 162.336 3.192 162.08 3.32 161.568C3.512 161.056 3.992 160.8 4.76 160.8H9.368C10.136 160.8 10.584 161.056 10.712 161.568C10.84 162.08 10.904 162.336 10.904 162.336V226.464C10.904 226.976 10.776 227.328 10.52 227.52C10.328 227.712 9.688 227.84 8.6 227.904C7.512 227.968 5.688 228 3.128 228ZM28.664 228.192C28.088 228.192 27.384 228.16 26.552 228.096C25.784 228.096 24.952 228.064 24.056 228C23.736 222.496 23.064 217.888 22.04 214.176C21.08 210.4 20.024 207.424 18.872 205.248C17.784 203.008 16.824 201.408 15.992 200.448C15.16 199.488 14.744 199.008 14.744 199.008C14.744 199.008 14.68 198.816 14.552 198.432C14.424 198.048 14.68 197.664 15.32 197.28L19.544 194.976C20.312 194.976 20.856 195.264 21.176 195.84C21.176 195.84 21.688 196.416 22.712 197.568C23.736 198.72 24.952 200.544 26.36 203.04C27.768 205.472 29.08 208.608 30.296 212.448C31.512 216.288 32.28 220.896 32.6 226.272C32.6 226.976 32.408 227.488 32.024 227.808C31.64 228.064 30.52 228.192 28.664 228.192ZM10.712 193.536H15.128C16.92 193.536 18.392 193.088 19.544 192.192C20.76 191.232 21.688 189.728 22.328 187.68C22.968 185.568 23.288 182.816 23.288 179.424C23.288 176.992 23.064 174.88 22.616 173.088C22.168 171.296 21.368 169.952 20.216 169.056C19.128 168.096 17.624 167.616 15.704 167.616H10.712V193.536ZM50.9428 228.96C48.7668 228.96 46.7188 228.64 44.7988 228C42.9428 227.424 41.3108 226.336 39.9028 224.736C38.5588 223.136 37.5028 220.864 36.7348 217.92C36.0308 214.976 35.6788 211.168 35.6788 206.496C35.6788 200.48 36.1588 195.648 37.1188 192C38.0788 188.352 39.3588 185.6 40.9588 183.744C42.5588 181.888 44.3828 180.64 46.4308 180C48.4788 179.36 50.5588 179.04 52.6708 179.04C56.7028 179.04 59.7428 180.32 61.7908 182.88C63.8388 185.44 64.8628 189.312 64.8628 194.496C64.8628 196.608 64.7668 198.784 64.5748 201.024C64.4468 203.264 64.1588 205.248 63.7108 206.976C61.5348 207.424 59.1028 207.744 56.4148 207.936C53.7268 208.128 51.1668 208.288 48.7348 208.416C46.3028 208.48 44.2868 208.512 42.6868 208.512C41.1508 208.512 40.3828 208.512 40.3828 208.512L40.4788 202.176C40.4788 202.176 41.0868 202.208 42.3028 202.272C43.5188 202.272 44.9908 202.272 46.7188 202.272C48.5108 202.208 50.3028 202.112 52.0948 201.984C53.9508 201.792 55.5188 201.504 56.7988 201.12C56.9908 200.224 57.1188 199.264 57.1828 198.24C57.2468 197.216 57.2788 196.256 57.2788 195.36C57.2148 191.904 56.7988 189.472 56.0308 188.064C55.3268 186.592 53.9188 185.856 51.8068 185.856C50.7188 185.856 49.6628 186.176 48.6388 186.816C47.6788 187.392 46.8148 188.448 46.0468 189.984C45.2788 191.456 44.6708 193.504 44.2228 196.128C43.8388 198.752 43.6468 202.112 43.6468 206.208C43.6468 209.216 43.8068 211.712 44.1268 213.696C44.5108 215.68 45.0548 217.216 45.7588 218.304C46.5268 219.392 47.4548 220.192 48.5428 220.704C49.6948 221.152 51.0708 221.376 52.6708 221.376C54.5908 221.376 56.4788 221.12 58.3348 220.608C60.2548 220.096 61.9828 219.36 63.5188 218.4C63.8388 219.168 64.0308 220.064 64.0948 221.088C64.2228 222.048 64.2868 222.912 64.2868 223.68C64.2868 224.64 63.6788 225.536 62.4628 226.368C61.2468 227.2 59.6148 227.84 57.5668 228.288C55.5828 228.736 53.3748 228.96 50.9428 228.96ZM81.9845 228.96C80.1925 228.96 78.4645 228.8 76.8005 228.48C75.2005 228.224 73.7605 227.616 72.4805 226.656C71.2005 225.632 70.1765 224.16 69.4085 222.24C68.6405 220.32 68.2565 217.696 68.2565 214.368C68.2565 211.04 68.6085 208.352 69.3125 206.304C70.0165 204.192 70.9765 202.592 72.1925 201.504C73.4085 200.352 74.7845 199.584 76.3205 199.2C77.8565 198.816 79.4245 198.624 81.0245 198.624C82.0485 198.624 83.2325 198.72 84.5765 198.912C85.9845 199.104 87.1685 199.424 88.1285 199.872C88.1285 199.872 88.1285 199.424 88.1285 198.528C88.1285 197.632 88.1285 196.608 88.1285 195.456C88.1285 194.24 88.1285 193.184 88.1285 192.288C88.1285 190.752 87.8725 189.6 87.3605 188.832C86.9125 188 86.2405 187.424 85.3445 187.104C84.5125 186.72 83.4565 186.528 82.1765 186.528C79.6805 186.528 77.2805 186.752 74.9765 187.2C72.6725 187.648 70.8165 188.16 69.4085 188.736C68.9605 187.968 68.6725 187.2 68.5445 186.432C68.4165 185.6 68.3525 184.864 68.3525 184.224C68.3525 183.776 68.4165 183.296 68.5445 182.784C68.7365 182.272 69.0245 181.888 69.4085 181.632C70.2405 181.12 71.9685 180.576 74.5925 180C77.2165 179.36 80.3525 179.04 84.0005 179.04C88.1605 179.04 91.1685 179.904 93.0245 181.632C94.9445 183.36 95.9045 186.4 95.9045 190.752V195.84C95.9045 199.488 95.8725 203.168 95.8085 206.88C95.8085 210.528 95.7765 213.984 95.7125 217.248C95.6485 220.448 95.5205 223.264 95.3285 225.696C94.0485 226.464 92.2885 227.2 90.0485 227.904C87.8085 228.608 85.1205 228.96 81.9845 228.96ZM82.7525 222.432C83.7765 222.432 84.7685 222.272 85.7285 221.952C86.6885 221.632 87.3605 221.248 87.7445 220.8C87.8725 219.776 87.9365 218.368 87.9365 216.576C88.0005 214.784 88.0325 212.896 88.0325 210.912C88.0965 208.928 88.1285 207.072 88.1285 205.344C87.4885 205.024 86.7205 204.8 85.8245 204.672C84.9925 204.544 84.2565 204.48 83.6165 204.48C82.5925 204.48 81.6325 204.608 80.7365 204.864C79.9045 205.056 79.1685 205.504 78.5285 206.208C77.8885 206.848 77.3765 207.808 76.9925 209.088C76.6085 210.368 76.4165 212.064 76.4165 214.176C76.4165 215.904 76.5445 217.312 76.8005 218.4C77.1205 219.488 77.5685 220.352 78.1445 220.992C78.7205 221.568 79.3925 221.952 80.1605 222.144C80.9285 222.336 81.7925 222.432 82.7525 222.432ZM101.906 228V160.992C101.906 159.776 102.098 158.944 102.482 158.496C102.93 157.984 103.73 157.696 104.882 157.632C106.034 157.504 107.634 157.44 109.682 157.44V226.464C109.682 226.976 109.554 227.328 109.298 227.52C109.106 227.712 108.466 227.84 107.378 227.904C106.354 227.968 104.53 228 101.906 228ZM129.655 228V162.336C129.655 162.336 129.719 162.08 129.847 161.568C130.039 161.056 130.519 160.8 131.287 160.8H154.327C154.327 162.912 154.295 164.448 154.231 165.408C154.167 166.368 154.039 167.008 153.847 167.328C153.655 167.648 153.335 167.808 152.887 167.808H137.431V220.992H153.943C153.943 223.168 153.911 224.768 153.847 225.792C153.783 226.752 153.655 227.36 153.463 227.616C153.271 227.872 152.919 228 152.407 228H129.655ZM130.711 194.976V187.872H151.927C151.927 190.816 151.863 192.736 151.735 193.632C151.607 194.528 151.191 194.976 150.487 194.976H130.711ZM168.853 228.96C165.461 228.96 162.645 228.576 160.405 227.808C158.229 226.976 157.141 225.728 157.141 224.064C157.141 223.488 157.237 222.816 157.429 222.048C157.621 221.216 157.973 220.384 158.485 219.552C159.893 220.384 161.365 220.992 162.901 221.376C164.501 221.76 166.229 221.952 168.085 221.952C170.517 221.952 172.405 221.472 173.749 220.512C175.157 219.488 175.861 217.984 175.861 216C175.861 214.72 175.573 213.472 174.997 212.256C174.485 211.04 173.493 209.792 172.021 208.512L162.709 200.544C160.533 198.752 159.061 197.024 158.293 195.36C157.589 193.632 157.237 191.968 157.237 190.368C157.237 188.128 157.781 186.176 158.869 184.512C160.021 182.784 161.749 181.44 164.053 180.48C166.421 179.52 169.365 179.04 172.885 179.04C176.213 179.04 178.709 179.36 180.373 180C182.101 180.64 183.285 181.376 183.925 182.208C184.629 182.976 184.981 183.712 184.981 184.416C184.981 185.76 184.405 187.072 183.253 188.352C181.845 187.456 180.373 186.816 178.837 186.432C177.301 186.048 175.637 185.856 173.845 185.856C171.541 185.856 169.685 186.272 168.277 187.104C166.933 187.872 166.261 188.992 166.261 190.464C166.261 191.296 166.485 192.16 166.933 193.056C167.445 193.952 168.501 195.072 170.101 196.416L179.029 203.616C181.141 205.6 182.613 207.488 183.445 209.28C184.277 211.072 184.693 213.184 184.693 215.616C184.693 219.84 183.285 223.136 180.469 225.504C177.653 227.808 173.781 228.96 168.853 228.96ZM202.907 228.96C200.219 228.96 198.203 228.384 196.859 227.232C195.579 226.016 194.747 224.352 194.363 222.24C193.979 220.064 193.787 217.536 193.787 214.656V186.72H187.259C187.259 184.672 187.259 183.2 187.259 182.304C187.323 181.344 187.483 180.736 187.739 180.48C187.995 180.16 188.379 180 188.891 180H193.787V165.408C193.787 164.448 193.979 163.808 194.363 163.488C194.811 163.104 195.579 162.88 196.667 162.816C197.819 162.752 199.451 162.72 201.563 162.72V180H211.355C211.355 181.984 211.323 183.456 211.259 184.416C211.259 185.376 211.131 186.016 210.875 186.336C210.683 186.592 210.331 186.72 209.819 186.72H201.563V214.656C201.563 216 201.595 217.28 201.659 218.496C201.787 219.648 202.075 220.576 202.523 221.28C203.035 221.92 203.867 222.24 205.019 222.24C206.107 222.24 207.067 222.144 207.899 221.952C208.731 221.696 209.627 221.312 210.587 220.8C210.715 221.312 210.843 221.888 210.971 222.528C211.099 223.168 211.163 223.904 211.163 224.736C211.163 225.888 210.715 226.784 209.819 227.424C208.987 228 207.931 228.384 206.651 228.576C205.435 228.832 204.187 228.96 202.907 228.96ZM227.308 228.96C225.516 228.96 223.788 228.8 222.124 228.48C220.524 228.224 219.084 227.616 217.804 226.656C216.524 225.632 215.5 224.16 214.732 222.24C213.964 220.32 213.58 217.696 213.58 214.368C213.58 211.04 213.932 208.352 214.636 206.304C215.34 204.192 216.3 202.592 217.516 201.504C218.732 200.352 220.108 199.584 221.644 199.2C223.18 198.816 224.748 198.624 226.348 198.624C227.372 198.624 228.556 198.72 229.9 198.912C231.308 199.104 232.492 199.424 233.452 199.872C233.452 199.872 233.452 199.424 233.452 198.528C233.452 197.632 233.452 196.608 233.452 195.456C233.452 194.24 233.452 193.184 233.452 192.288C233.452 190.752 233.196 189.6 232.684 188.832C232.236 188 231.564 187.424 230.668 187.104C229.836 186.72 228.78 186.528 227.5 186.528C225.004 186.528 222.604 186.752 220.3 187.2C217.996 187.648 216.14 188.16 214.732 188.736C214.284 187.968 213.996 187.2 213.868 186.432C213.74 185.6 213.676 184.864 213.676 184.224C213.676 183.776 213.74 183.296 213.868 182.784C214.06 182.272 214.348 181.888 214.732 181.632C215.564 181.12 217.292 180.576 219.916 180C222.54 179.36 225.676 179.04 229.324 179.04C233.484 179.04 236.492 179.904 238.348 181.632C240.268 183.36 241.228 186.4 241.228 190.752V195.84C241.228 199.488 241.196 203.168 241.132 206.88C241.132 210.528 241.1 213.984 241.036 217.248C240.972 220.448 240.844 223.264 240.652 225.696C239.372 226.464 237.612 227.2 235.372 227.904C233.132 228.608 230.444 228.96 227.308 228.96ZM228.076 222.432C229.1 222.432 230.092 222.272 231.052 221.952C232.012 221.632 232.684 221.248 233.068 220.8C233.196 219.776 233.26 218.368 233.26 216.576C233.324 214.784 233.356 212.896 233.356 210.912C233.42 208.928 233.452 207.072 233.452 205.344C232.812 205.024 232.044 204.8 231.148 204.672C230.316 204.544 229.58 204.48 228.94 204.48C227.916 204.48 226.956 204.608 226.06 204.864C225.228 205.056 224.492 205.504 223.852 206.208C223.212 206.848 222.7 207.808 222.316 209.088C221.932 210.368 221.74 212.064 221.74 214.176C221.74 215.904 221.868 217.312 222.124 218.4C222.444 219.488 222.892 220.352 223.468 220.992C224.044 221.568 224.716 221.952 225.484 222.144C226.252 222.336 227.116 222.432 228.076 222.432ZM259.63 228.96C256.942 228.96 254.926 228.384 253.582 227.232C252.302 226.016 251.47 224.352 251.086 222.24C250.702 220.064 250.51 217.536 250.51 214.656V186.72H243.982C243.982 184.672 243.982 183.2 243.982 182.304C244.046 181.344 244.206 180.736 244.462 180.48C244.718 180.16 245.102 180 245.614 180H250.51V165.408C250.51 164.448 250.702 163.808 251.086 163.488C251.534 163.104 252.302 162.88 253.39 162.816C254.542 162.752 256.174 162.72 258.286 162.72V180H268.078C268.078 181.984 268.046 183.456 267.982 184.416C267.982 185.376 267.854 186.016 267.598 186.336C267.406 186.592 267.054 186.72 266.542 186.72H258.286V214.656C258.286 216 258.318 217.28 258.382 218.496C258.51 219.648 258.798 220.576 259.246 221.28C259.758 221.92 260.59 222.24 261.742 222.24C262.83 222.24 263.79 222.144 264.622 221.952C265.454 221.696 266.35 221.312 267.31 220.8C267.438 221.312 267.566 221.888 267.694 222.528C267.822 223.168 267.886 223.904 267.886 224.736C267.886 225.888 267.438 226.784 266.542 227.424C265.71 228 264.654 228.384 263.374 228.576C262.158 228.832 260.91 228.96 259.63 228.96ZM284.725 228.96C282.549 228.96 280.501 228.64 278.581 228C276.725 227.424 275.093 226.336 273.685 224.736C272.341 223.136 271.285 220.864 270.517 217.92C269.813 214.976 269.461 211.168 269.461 206.496C269.461 200.48 269.941 195.648 270.901 192C271.861 188.352 273.141 185.6 274.741 183.744C276.341 181.888 278.165 180.64 280.213 180C282.261 179.36 284.341 179.04 286.453 179.04C290.485 179.04 293.525 180.32 295.573 182.88C297.621 185.44 298.645 189.312 298.645 194.496C298.645 196.608 298.549 198.784 298.357 201.024C298.229 203.264 297.941 205.248 297.493 206.976C295.317 207.424 292.885 207.744 290.197 207.936C287.509 208.128 284.949 208.288 282.517 208.416C280.085 208.48 278.069 208.512 276.469 208.512C274.933 208.512 274.165 208.512 274.165 208.512L274.261 202.176C274.261 202.176 274.869 202.208 276.085 202.272C277.301 202.272 278.773 202.272 280.501 202.272C282.293 202.208 284.085 202.112 285.877 201.984C287.733 201.792 289.301 201.504 290.581 201.12C290.773 200.224 290.901 199.264 290.965 198.24C291.029 197.216 291.061 196.256 291.061 195.36C290.997 191.904 290.581 189.472 289.813 188.064C289.109 186.592 287.701 185.856 285.589 185.856C284.501 185.856 283.445 186.176 282.421 186.816C281.461 187.392 280.597 188.448 279.829 189.984C279.061 191.456 278.453 193.504 278.005 196.128C277.621 198.752 277.429 202.112 277.429 206.208C277.429 209.216 277.589 211.712 277.909 213.696C278.293 215.68 278.837 217.216 279.541 218.304C280.309 219.392 281.237 220.192 282.325 220.704C283.477 221.152 284.853 221.376 286.453 221.376C288.373 221.376 290.261 221.12 292.117 220.608C294.037 220.096 295.765 219.36 297.301 218.4C297.621 219.168 297.813 220.064 297.877 221.088C298.005 222.048 298.069 222.912 298.069 223.68C298.069 224.64 297.461 225.536 296.245 226.368C295.029 227.2 293.397 227.84 291.349 228.288C289.365 228.736 287.157 228.96 284.725 228.96ZM331.338 228.96C329.482 228.96 327.754 228.736 326.154 228.288C324.554 227.84 323.082 227.008 321.738 225.792C320.458 224.576 319.338 222.816 318.378 220.512C317.418 218.144 316.682 215.072 316.17 211.296C315.658 207.456 315.402 202.752 315.402 197.184C315.402 190.592 315.754 185.088 316.458 180.672C317.226 176.192 318.25 172.608 319.53 169.92C320.81 167.168 322.25 165.056 323.85 163.584C325.514 162.112 327.242 161.12 329.034 160.608C330.826 160.096 332.586 159.84 334.314 159.84C336.682 159.84 338.506 160.128 339.786 160.704C341.13 161.216 342.058 161.888 342.57 162.72C343.082 163.488 343.338 164.288 343.338 165.12C343.338 166.016 343.21 166.88 342.954 167.712C342.698 168.544 342.41 169.248 342.09 169.824C341.77 169.568 341.29 169.28 340.65 168.96C340.074 168.576 339.37 168.256 338.538 168C337.706 167.68 336.81 167.52 335.85 167.52C334.634 167.52 333.418 167.744 332.202 168.192C331.05 168.576 329.93 169.376 328.842 170.592C327.818 171.744 326.922 173.408 326.154 175.584C325.386 177.76 324.746 180.576 324.234 184.032C323.786 187.488 323.562 191.744 323.562 196.8C323.562 201.664 323.786 205.632 324.234 208.704C324.746 211.776 325.418 214.176 326.25 215.904C327.082 217.568 328.074 218.72 329.226 219.36C330.442 220 331.754 220.32 333.162 220.32C335.018 220.32 336.746 220 338.346 219.36C339.946 218.72 341.162 218.048 341.994 217.344C342.314 217.984 342.602 218.72 342.858 219.552C343.114 220.384 343.242 221.216 343.242 222.048C343.242 223.264 342.73 224.416 341.706 225.504C340.746 226.528 339.37 227.36 337.578 228C335.786 228.64 333.706 228.96 331.338 228.96ZM359.833 228.96C358.041 228.96 356.313 228.8 354.649 228.48C353.049 228.224 351.609 227.616 350.329 226.656C349.049 225.632 348.025 224.16 347.257 222.24C346.489 220.32 346.105 217.696 346.105 214.368C346.105 211.04 346.457 208.352 347.161 206.304C347.865 204.192 348.825 202.592 350.041 201.504C351.257 200.352 352.633 199.584 354.169 199.2C355.705 198.816 357.273 198.624 358.873 198.624C359.897 198.624 361.081 198.72 362.425 198.912C363.833 199.104 365.017 199.424 365.977 199.872C365.977 199.872 365.977 199.424 365.977 198.528C365.977 197.632 365.977 196.608 365.977 195.456C365.977 194.24 365.977 193.184 365.977 192.288C365.977 190.752 365.721 189.6 365.209 188.832C364.761 188 364.089 187.424 363.193 187.104C362.361 186.72 361.305 186.528 360.025 186.528C357.529 186.528 355.129 186.752 352.825 187.2C350.521 187.648 348.665 188.16 347.257 188.736C346.809 187.968 346.521 187.2 346.393 186.432C346.265 185.6 346.201 184.864 346.201 184.224C346.201 183.776 346.265 183.296 346.393 182.784C346.585 182.272 346.873 181.888 347.257 181.632C348.089 181.12 349.817 180.576 352.441 180C355.065 179.36 358.201 179.04 361.849 179.04C366.009 179.04 369.017 179.904 370.873 181.632C372.793 183.36 373.753 186.4 373.753 190.752V195.84C373.753 199.488 373.721 203.168 373.657 206.88C373.657 210.528 373.625 213.984 373.561 217.248C373.497 220.448 373.369 223.264 373.177 225.696C371.897 226.464 370.137 227.2 367.897 227.904C365.657 228.608 362.969 228.96 359.833 228.96ZM360.601 222.432C361.625 222.432 362.617 222.272 363.577 221.952C364.537 221.632 365.209 221.248 365.593 220.8C365.721 219.776 365.785 218.368 365.785 216.576C365.849 214.784 365.881 212.896 365.881 210.912C365.945 208.928 365.977 207.072 365.977 205.344C365.337 205.024 364.569 204.8 363.673 204.672C362.841 204.544 362.105 204.48 361.465 204.48C360.441 204.48 359.481 204.608 358.585 204.864C357.753 205.056 357.017 205.504 356.377 206.208C355.737 206.848 355.225 207.808 354.841 209.088C354.457 210.368 354.265 212.064 354.265 214.176C354.265 215.904 354.393 217.312 354.649 218.4C354.969 219.488 355.417 220.352 355.993 220.992C356.569 221.568 357.241 221.952 358.009 222.144C358.777 222.336 359.641 222.432 360.601 222.432ZM379.659 228V183.36C381.515 182.016 383.563 180.96 385.803 180.192C388.043 179.424 390.347 179.04 392.715 179.04C395.211 179.04 396.939 179.392 397.899 180.096C398.923 180.736 399.435 181.728 399.435 183.072C399.435 183.584 399.371 184.288 399.243 185.184C399.115 186.016 398.891 186.848 398.571 187.68C397.867 187.296 397.131 187.008 396.363 186.816C395.595 186.624 394.795 186.528 393.963 186.528C392.875 186.528 391.755 186.72 390.603 187.104C389.515 187.424 388.523 187.936 387.627 188.64L387.531 226.464C387.531 226.976 387.403 227.328 387.147 227.52C386.955 227.712 386.315 227.84 385.227 227.904C384.139 227.968 382.283 228 379.659 228ZM414.907 228.96C412.731 228.96 410.683 228.64 408.763 228C406.907 227.424 405.275 226.336 403.867 224.736C402.523 223.136 401.467 220.864 400.699 217.92C399.995 214.976 399.643 211.168 399.643 206.496C399.643 200.48 400.123 195.648 401.083 192C402.043 188.352 403.323 185.6 404.923 183.744C406.523 181.888 408.347 180.64 410.395 180C412.443 179.36 414.523 179.04 416.635 179.04C420.667 179.04 423.707 180.32 425.755 182.88C427.803 185.44 428.827 189.312 428.827 194.496C428.827 196.608 428.731 198.784 428.539 201.024C428.411 203.264 428.123 205.248 427.675 206.976C425.499 207.424 423.067 207.744 420.379 207.936C417.691 208.128 415.131 208.288 412.699 208.416C410.267 208.48 408.251 208.512 406.651 208.512C405.115 208.512 404.347 208.512 404.347 208.512L404.443 202.176C404.443 202.176 405.051 202.208 406.267 202.272C407.483 202.272 408.955 202.272 410.683 202.272C412.475 202.208 414.267 202.112 416.059 201.984C417.915 201.792 419.483 201.504 420.763 201.12C420.955 200.224 421.083 199.264 421.147 198.24C421.211 197.216 421.243 196.256 421.243 195.36C421.179 191.904 420.763 189.472 419.995 188.064C419.291 186.592 417.883 185.856 415.771 185.856C414.683 185.856 413.627 186.176 412.603 186.816C411.643 187.392 410.779 188.448 410.011 189.984C409.243 191.456 408.635 193.504 408.187 196.128C407.803 198.752 407.611 202.112 407.611 206.208C407.611 209.216 407.771 211.712 408.091 213.696C408.475 215.68 409.019 217.216 409.723 218.304C410.491 219.392 411.419 220.192 412.507 220.704C413.659 221.152 415.035 221.376 416.635 221.376C418.555 221.376 420.443 221.12 422.299 220.608C424.219 220.096 425.947 219.36 427.483 218.4C427.803 219.168 427.995 220.064 428.059 221.088C428.187 222.048 428.251 222.912 428.251 223.68C428.251 224.64 427.643 225.536 426.427 226.368C425.211 227.2 423.579 227.84 421.531 228.288C419.547 228.736 417.339 228.96 414.907 228.96Z" fill="#293439" fill-opacity="0.8"/>
<path d="M18.6875 260.219C16.6562 260.844 14.5729 261.156 12.4375 261.156C4.625 261.156 0.71875 257.276 0.71875 249.516C0.71875 242.172 4.625 238.5 12.4375 238.5C14.5729 238.5 16.6562 238.812 18.6875 239.438V240.844C16.6562 240.219 14.6771 239.906 12.75 239.906C5.82292 239.906 2.35938 243.109 2.35938 249.516C2.35938 256.339 5.82292 259.75 12.75 259.75C14.6771 259.75 16.6562 259.438 18.6875 258.812V260.219ZM27.3312 256.359C27.3312 253.099 29.4979 251.469 33.8312 251.469C35.3625 251.469 36.9979 251.573 38.7375 251.781V249.766C38.7375 247.255 37.1594 246 34.0031 246C32.3156 246 30.5865 246.26 28.8156 246.781V245.375C30.5865 244.854 32.3156 244.594 34.0031 244.594C38.2531 244.594 40.3781 246.292 40.3781 249.688V261H39.3781L39.0031 259.375C36.951 260.458 34.9615 261 33.0344 261C29.2323 261 27.3312 259.453 27.3312 256.359ZM33.8312 252.875C30.5917 252.875 28.9719 254.021 28.9719 256.312C28.9719 258.5 30.326 259.594 33.0344 259.594C35.0344 259.594 36.9354 259.062 38.7375 258V253.188C36.9979 252.979 35.3625 252.875 33.8312 252.875ZM50.1937 261V244.594H51.3656L51.5687 247.312C53.2146 245.5 55.0479 244.594 57.0687 244.594V245.906C55.1104 245.906 53.3656 246.859 51.8344 248.766V261H50.1937ZM67.0406 238.656V240.531H65.0875V238.656H67.0406ZM66.8844 244.594V261H65.2438V244.594H66.8844ZM77.0125 261V244.594H78.1844L78.3875 246.688C80.4812 245.292 82.5333 244.594 84.5437 244.594C88.5333 244.594 90.5281 246.318 90.5281 249.766V261H88.8875V249.719C88.8875 247.281 87.4135 246.062 84.4656 246.062C82.4969 246.062 80.5594 246.755 78.6531 248.141V261H77.0125ZM112.25 246.438C110.74 246.188 109.255 246.062 107.797 246.062C103.37 246.062 101.156 248.266 101.156 252.672C101.156 257.182 103.224 259.438 107.359 259.438C108.859 259.438 110.49 259.156 112.25 258.594V246.438ZM113.891 261C113.891 264.958 111.479 266.938 106.656 266.938C104.635 266.938 102.844 266.677 101.281 266.156V264.75C102.875 265.271 104.677 265.531 106.688 265.531C110.396 265.531 112.25 264.021 112.25 261V260.219C110.396 260.74 108.76 261 107.344 261C102.156 261 99.5625 258.234 99.5625 252.703C99.5625 247.297 102.349 244.594 107.922 244.594C110.036 244.594 112.026 244.818 113.891 245.266V261ZM138.428 238.656V240.531H136.475V238.656H138.428ZM138.272 244.594V261H136.631V244.594H138.272ZM148.087 260.219V258.656C149.91 259.281 151.702 259.594 153.462 259.594C156.91 259.594 158.634 258.5 158.634 256.312C158.634 254.542 157.358 253.656 154.806 253.656H152.712C149.275 253.656 147.556 252.198 147.556 249.281C147.556 246.156 149.832 244.594 154.384 244.594C156.134 244.594 157.921 244.854 159.744 245.375V246.938C157.921 246.312 156.134 246 154.384 246C150.926 246 149.197 247.094 149.197 249.281C149.197 251.156 150.369 252.094 152.712 252.094H154.806C158.452 252.094 160.275 253.5 160.275 256.312C160.275 259.438 158.004 261 153.462 261C151.702 261 149.91 260.74 148.087 260.219ZM184.016 238.656V240.531H182.062V238.656H184.016ZM183.859 244.594V261H182.219V244.594H183.859ZM193.988 261V244.594H195.159L195.363 246.688C197.456 245.292 199.508 244.594 201.519 244.594C205.508 244.594 207.503 246.318 207.503 249.766V261H205.863V249.719C205.863 247.281 204.389 246.062 201.441 246.062C199.472 246.062 197.534 246.755 195.628 248.141V261H193.988ZM230.791 252.734C230.791 257.411 232.796 259.75 236.806 259.75C240.817 259.75 242.822 257.411 242.822 252.734C242.822 248.141 240.817 245.844 236.806 245.844C232.796 245.844 230.791 248.141 230.791 252.734ZM229.15 252.797C229.15 247.224 231.702 244.438 236.806 244.438C241.91 244.438 244.463 247.224 244.463 252.797C244.463 258.359 241.91 261.141 236.806 261.141C231.723 261.141 229.171 258.359 229.15 252.797ZM266.997 244.594V261H265.794L265.606 258.906C263.721 260.302 261.617 261 259.294 261C255.419 261 253.481 258.964 253.481 254.891V244.594H255.122V254.938C255.122 258 256.539 259.531 259.372 259.531C261.445 259.531 263.44 258.839 265.356 257.453V244.594H266.997ZM276.812 261V244.594H277.984L278.188 247.312C279.833 245.5 281.667 244.594 283.688 244.594V245.906C281.729 245.906 279.984 246.859 278.453 248.766V261H276.812ZM304.163 261V244.594H305.334L305.538 246.688C307.631 245.292 309.683 244.594 311.694 244.594C315.683 244.594 317.678 246.318 317.678 249.766V261H316.038V249.719C316.038 247.281 314.564 246.062 311.616 246.062C309.647 246.062 307.709 246.755 305.803 248.141V261H304.163ZM326.556 256.359C326.556 253.099 328.723 251.469 333.056 251.469C334.587 251.469 336.223 251.573 337.962 251.781V249.766C337.962 247.255 336.384 246 333.228 246C331.541 246 329.811 246.26 328.041 246.781V245.375C329.811 244.854 331.541 244.594 333.228 244.594C337.478 244.594 339.603 246.292 339.603 249.688V261H338.603L338.228 259.375C336.176 260.458 334.186 261 332.259 261C328.457 261 326.556 259.453 326.556 256.359ZM333.056 252.875C329.817 252.875 328.197 254.021 328.197 256.312C328.197 258.5 329.551 259.594 332.259 259.594C334.259 259.594 336.16 259.062 337.962 258V253.188C336.223 252.979 334.587 252.875 333.056 252.875ZM349.356 241.938H350.513L350.809 244.594H355.731V246H350.95V256.359C350.95 258.516 351.742 259.594 353.325 259.594H355.731V261H353.356C350.69 261 349.356 259.526 349.356 256.578V241.938ZM377.547 244.594V261H376.344L376.156 258.906C374.271 260.302 372.167 261 369.844 261C365.969 261 364.031 258.964 364.031 254.891V244.594H365.672V254.938C365.672 258 367.089 259.531 369.922 259.531C371.995 259.531 373.99 258.839 375.906 257.453V244.594H377.547ZM387.363 261V244.594H388.534L388.738 247.312C390.383 245.5 392.217 244.594 394.238 244.594V245.906C392.279 245.906 390.534 246.859 389.003 248.766V261H387.363ZM408.709 244.594C413.199 244.594 415.444 247.078 415.444 252.047C415.444 252.401 415.433 252.771 415.413 253.156H402.959C402.959 257.448 405.23 259.594 409.772 259.594C411.636 259.594 413.293 259.333 414.741 258.812V260.219C413.293 260.74 411.636 261 409.772 261C404.136 261 401.319 258.203 401.319 252.609C401.319 247.266 403.782 244.594 408.709 244.594ZM402.959 251.688H413.866C413.803 247.875 412.084 245.969 408.709 245.969C405.064 245.969 403.147 247.875 402.959 251.688Z" fill="#293439" fill-opacity="0.8"/>
</svg>
