<svg width="587" height="142" viewBox="0 0 587 142" fill="none" xmlns="http://www.w3.org/2000/svg">
<g clip-path="url(#clip0_0_1)">
<path d="M71.5736 3.99646L4.39844 71.1716L71.5736 138.347L138.749 71.1716L71.5736 3.99646Z" stroke="white" stroke-opacity="0.8" stroke-width="5"/>
<path d="M47.9159 93.8322L71.5485 70.1996" stroke="white" stroke-opacity="0.8" stroke-width="5"/>
<path d="M93.4271 95.9626L70.2322 72.7678" stroke="white" stroke-opacity="0.8" stroke-width="5"/>
<path d="M163.816 71.736C162.856 71.736 162.344 71.576 162.28 71.256C162.216 70.936 162.184 70.392 162.184 69.624V33.624C162.184 33.432 162.184 33.08 162.184 32.568C162.248 32.056 162.632 31.8 163.336 31.8H172.264C176.296 31.8 179.624 32.472 182.248 33.816C184.872 35.096 186.792 37.144 188.008 39.96C189.288 42.712 189.928 46.328 189.928 50.808C189.928 54.776 189.448 58.104 188.488 60.792C187.592 63.416 186.312 65.528 184.648 67.128C183.048 68.728 181.192 69.912 179.08 70.68C176.968 71.384 174.728 71.736 172.36 71.736H163.816ZM161.128 99V33.336C161.128 33.336 161.192 33.08 161.32 32.568C161.512 32.056 161.992 31.8 162.76 31.8H167.368C168.136 31.8 168.584 32.056 168.712 32.568C168.84 33.08 168.904 33.336 168.904 33.336V97.464C168.904 97.976 168.776 98.328 168.52 98.52C168.328 98.712 167.688 98.84 166.6 98.904C165.512 98.968 163.688 99 161.128 99ZM186.664 99.192C186.088 99.192 185.384 99.16 184.552 99.096C183.784 99.096 182.952 99.064 182.056 99C181.736 93.496 181.064 88.888 180.04 85.176C179.08 81.4 178.024 78.424 176.872 76.248C175.784 74.008 174.824 72.408 173.992 71.448C173.16 70.488 172.744 70.008 172.744 70.008C172.744 70.008 172.68 69.816 172.552 69.432C172.424 69.048 172.68 68.664 173.32 68.28L177.544 65.976C178.312 65.976 178.856 66.264 179.176 66.84C179.176 66.84 179.688 67.416 180.712 68.568C181.736 69.72 182.952 71.544 184.36 74.04C185.768 76.472 187.08 79.608 188.296 83.448C189.512 87.288 190.28 91.896 190.6 97.272C190.6 97.976 190.408 98.488 190.024 98.808C189.64 99.064 188.52 99.192 186.664 99.192ZM168.712 64.536H173.128C174.92 64.536 176.392 64.088 177.544 63.192C178.76 62.232 179.688 60.728 180.328 58.68C180.968 56.568 181.288 53.816 181.288 50.424C181.288 47.992 181.064 45.88 180.616 44.088C180.168 42.296 179.368 40.952 178.216 40.056C177.128 39.096 175.624 38.616 173.704 38.616H168.712V64.536ZM208.943 99.96C206.767 99.96 204.719 99.64 202.799 99C200.943 98.424 199.311 97.336 197.903 95.736C196.559 94.136 195.503 91.864 194.735 88.92C194.031 85.976 193.679 82.168 193.679 77.496C193.679 71.48 194.159 66.648 195.119 63C196.079 59.352 197.359 56.6 198.959 54.744C200.559 52.888 202.383 51.64 204.431 51C206.479 50.36 208.559 50.04 210.671 50.04C214.703 50.04 217.743 51.32 219.791 53.88C221.839 56.44 222.863 60.312 222.863 65.496C222.863 67.608 222.767 69.784 222.575 72.024C222.447 74.264 222.159 76.248 221.711 77.976C219.535 78.424 217.103 78.744 214.415 78.936C211.727 79.128 209.167 79.288 206.735 79.416C204.303 79.48 202.287 79.512 200.687 79.512C199.151 79.512 198.383 79.512 198.383 79.512L198.479 73.176C198.479 73.176 199.087 73.208 200.303 73.272C201.519 73.272 202.991 73.272 204.719 73.272C206.511 73.208 208.303 73.112 210.095 72.984C211.951 72.792 213.519 72.504 214.799 72.12C214.991 71.224 215.119 70.264 215.183 69.24C215.247 68.216 215.279 67.256 215.279 66.36C215.215 62.904 214.799 60.472 214.031 59.064C213.327 57.592 211.919 56.856 209.807 56.856C208.719 56.856 207.663 57.176 206.639 57.816C205.679 58.392 204.815 59.448 204.047 60.984C203.279 62.456 202.671 64.504 202.223 67.128C201.839 69.752 201.647 73.112 201.647 77.208C201.647 80.216 201.807 82.712 202.127 84.696C202.511 86.68 203.055 88.216 203.759 89.304C204.527 90.392 205.455 91.192 206.543 91.704C207.695 92.152 209.071 92.376 210.671 92.376C212.591 92.376 214.479 92.12 216.335 91.608C218.255 91.096 219.983 90.36 221.519 89.4C221.839 90.168 222.031 91.064 222.095 92.088C222.223 93.048 222.287 93.912 222.287 94.68C222.287 95.64 221.679 96.536 220.463 97.368C219.247 98.2 217.615 98.84 215.567 99.288C213.583 99.736 211.375 99.96 208.943 99.96ZM239.985 99.96C238.193 99.96 236.465 99.8 234.801 99.48C233.201 99.224 231.761 98.616 230.481 97.656C229.201 96.632 228.177 95.16 227.409 93.24C226.641 91.32 226.257 88.696 226.257 85.368C226.257 82.04 226.609 79.352 227.313 77.304C228.017 75.192 228.977 73.592 230.193 72.504C231.409 71.352 232.785 70.584 234.321 70.2C235.857 69.816 237.425 69.624 239.025 69.624C240.049 69.624 241.233 69.72 242.577 69.912C243.985 70.104 245.169 70.424 246.129 70.872C246.129 70.872 246.129 70.424 246.129 69.528C246.129 68.632 246.129 67.608 246.129 66.456C246.129 65.24 246.129 64.184 246.129 63.288C246.129 61.752 245.873 60.6 245.361 59.832C244.913 59 244.241 58.424 243.345 58.104C242.513 57.72 241.457 57.528 240.177 57.528C237.681 57.528 235.281 57.752 232.977 58.2C230.673 58.648 228.817 59.16 227.409 59.736C226.961 58.968 226.673 58.2 226.545 57.432C226.417 56.6 226.353 55.864 226.353 55.224C226.353 54.776 226.417 54.296 226.545 53.784C226.737 53.272 227.025 52.888 227.409 52.632C228.241 52.12 229.969 51.576 232.593 51C235.217 50.36 238.353 50.04 242.001 50.04C246.161 50.04 249.169 50.904 251.025 52.632C252.945 54.36 253.905 57.4 253.905 61.752V66.84C253.905 70.488 253.873 74.168 253.809 77.88C253.809 81.528 253.777 84.984 253.713 88.248C253.649 91.448 253.521 94.264 253.329 96.696C252.049 97.464 250.289 98.2 248.049 98.904C245.809 99.608 243.121 99.96 239.985 99.96ZM240.753 93.432C241.777 93.432 242.769 93.272 243.729 92.952C244.689 92.632 245.361 92.248 245.745 91.8C245.873 90.776 245.937 89.368 245.937 87.576C246.001 85.784 246.033 83.896 246.033 81.912C246.097 79.928 246.129 78.072 246.129 76.344C245.489 76.024 244.721 75.8 243.825 75.672C242.993 75.544 242.257 75.48 241.617 75.48C240.593 75.48 239.633 75.608 238.737 75.864C237.905 76.056 237.169 76.504 236.529 77.208C235.889 77.848 235.377 78.808 234.993 80.088C234.609 81.368 234.417 83.064 234.417 85.176C234.417 86.904 234.545 88.312 234.801 89.4C235.121 90.488 235.569 91.352 236.145 91.992C236.721 92.568 237.393 92.952 238.161 93.144C238.929 93.336 239.793 93.432 240.753 93.432ZM259.906 99V31.992C259.906 30.776 260.098 29.944 260.482 29.496C260.93 28.984 261.73 28.696 262.882 28.632C264.034 28.504 265.634 28.44 267.682 28.44V97.464C267.682 97.976 267.554 98.328 267.298 98.52C267.106 98.712 266.466 98.84 265.378 98.904C264.354 98.968 262.53 99 259.906 99ZM287.655 99V33.336C287.655 33.336 287.719 33.08 287.847 32.568C288.039 32.056 288.519 31.8 289.287 31.8H312.327C312.327 33.912 312.295 35.448 312.231 36.408C312.167 37.368 312.039 38.008 311.847 38.328C311.655 38.648 311.335 38.808 310.887 38.808H295.431V91.992H311.943C311.943 94.168 311.911 95.768 311.847 96.792C311.783 97.752 311.655 98.36 311.463 98.616C311.271 98.872 310.919 99 310.407 99H287.655ZM288.711 65.976V58.872H309.927C309.927 61.816 309.863 63.736 309.735 64.632C309.607 65.528 309.191 65.976 308.487 65.976H288.711ZM326.853 99.96C323.461 99.96 320.645 99.576 318.405 98.808C316.229 97.976 315.141 96.728 315.141 95.064C315.141 94.488 315.237 93.816 315.429 93.048C315.621 92.216 315.973 91.384 316.485 90.552C317.893 91.384 319.365 91.992 320.901 92.376C322.501 92.76 324.229 92.952 326.085 92.952C328.517 92.952 330.405 92.472 331.749 91.512C333.157 90.488 333.861 88.984 333.861 87C333.861 85.72 333.573 84.472 332.997 83.256C332.485 82.04 331.493 80.792 330.021 79.512L320.709 71.544C318.533 69.752 317.061 68.024 316.293 66.36C315.589 64.632 315.237 62.968 315.237 61.368C315.237 59.128 315.781 57.176 316.869 55.512C318.021 53.784 319.749 52.44 322.053 51.48C324.421 50.52 327.365 50.04 330.885 50.04C334.213 50.04 336.709 50.36 338.373 51C340.101 51.64 341.285 52.376 341.925 53.208C342.629 53.976 342.981 54.712 342.981 55.416C342.981 56.76 342.405 58.072 341.253 59.352C339.845 58.456 338.373 57.816 336.837 57.432C335.301 57.048 333.637 56.856 331.845 56.856C329.541 56.856 327.685 57.272 326.277 58.104C324.933 58.872 324.261 59.992 324.261 61.464C324.261 62.296 324.485 63.16 324.933 64.056C325.445 64.952 326.501 66.072 328.101 67.416L337.029 74.616C339.141 76.6 340.613 78.488 341.445 80.28C342.277 82.072 342.693 84.184 342.693 86.616C342.693 90.84 341.285 94.136 338.469 96.504C335.653 98.808 331.781 99.96 326.853 99.96ZM360.907 99.96C358.219 99.96 356.203 99.384 354.859 98.232C353.579 97.016 352.747 95.352 352.363 93.24C351.979 91.064 351.787 88.536 351.787 85.656V57.72H345.259C345.259 55.672 345.259 54.2 345.259 53.304C345.323 52.344 345.483 51.736 345.739 51.48C345.995 51.16 346.379 51 346.891 51H351.787V36.408C351.787 35.448 351.979 34.808 352.363 34.488C352.811 34.104 353.579 33.88 354.667 33.816C355.819 33.752 357.451 33.72 359.563 33.72V51H369.355C369.355 52.984 369.323 54.456 369.259 55.416C369.259 56.376 369.131 57.016 368.875 57.336C368.683 57.592 368.331 57.72 367.819 57.72H359.563V85.656C359.563 87 359.595 88.28 359.659 89.496C359.787 90.648 360.075 91.576 360.523 92.28C361.035 92.92 361.867 93.24 363.019 93.24C364.107 93.24 365.067 93.144 365.899 92.952C366.731 92.696 367.627 92.312 368.587 91.8C368.715 92.312 368.843 92.888 368.971 93.528C369.099 94.168 369.163 94.904 369.163 95.736C369.163 96.888 368.715 97.784 367.819 98.424C366.987 99 365.931 99.384 364.651 99.576C363.435 99.832 362.187 99.96 360.907 99.96ZM385.308 99.96C383.516 99.96 381.788 99.8 380.124 99.48C378.524 99.224 377.084 98.616 375.804 97.656C374.524 96.632 373.5 95.16 372.732 93.24C371.964 91.32 371.58 88.696 371.58 85.368C371.58 82.04 371.932 79.352 372.636 77.304C373.34 75.192 374.3 73.592 375.516 72.504C376.732 71.352 378.108 70.584 379.644 70.2C381.18 69.816 382.748 69.624 384.348 69.624C385.372 69.624 386.556 69.72 387.9 69.912C389.308 70.104 390.492 70.424 391.452 70.872C391.452 70.872 391.452 70.424 391.452 69.528C391.452 68.632 391.452 67.608 391.452 66.456C391.452 65.24 391.452 64.184 391.452 63.288C391.452 61.752 391.196 60.6 390.684 59.832C390.236 59 389.564 58.424 388.668 58.104C387.836 57.72 386.78 57.528 385.5 57.528C383.004 57.528 380.604 57.752 378.3 58.2C375.996 58.648 374.14 59.16 372.732 59.736C372.284 58.968 371.996 58.2 371.868 57.432C371.74 56.6 371.676 55.864 371.676 55.224C371.676 54.776 371.74 54.296 371.868 53.784C372.06 53.272 372.348 52.888 372.732 52.632C373.564 52.12 375.292 51.576 377.916 51C380.54 50.36 383.676 50.04 387.324 50.04C391.484 50.04 394.492 50.904 396.348 52.632C398.268 54.36 399.228 57.4 399.228 61.752V66.84C399.228 70.488 399.196 74.168 399.132 77.88C399.132 81.528 399.1 84.984 399.036 88.248C398.972 91.448 398.844 94.264 398.652 96.696C397.372 97.464 395.612 98.2 393.372 98.904C391.132 99.608 388.444 99.96 385.308 99.96ZM386.076 93.432C387.1 93.432 388.092 93.272 389.052 92.952C390.012 92.632 390.684 92.248 391.068 91.8C391.196 90.776 391.26 89.368 391.26 87.576C391.324 85.784 391.356 83.896 391.356 81.912C391.42 79.928 391.452 78.072 391.452 76.344C390.812 76.024 390.044 75.8 389.148 75.672C388.316 75.544 387.58 75.48 386.94 75.48C385.916 75.48 384.956 75.608 384.06 75.864C383.228 76.056 382.492 76.504 381.852 77.208C381.212 77.848 380.7 78.808 380.316 80.088C379.932 81.368 379.74 83.064 379.74 85.176C379.74 86.904 379.868 88.312 380.124 89.4C380.444 90.488 380.892 91.352 381.468 91.992C382.044 92.568 382.716 92.952 383.484 93.144C384.252 93.336 385.116 93.432 386.076 93.432ZM417.63 99.96C414.942 99.96 412.926 99.384 411.582 98.232C410.302 97.016 409.47 95.352 409.086 93.24C408.702 91.064 408.51 88.536 408.51 85.656V57.72H401.982C401.982 55.672 401.982 54.2 401.982 53.304C402.046 52.344 402.206 51.736 402.462 51.48C402.718 51.16 403.102 51 403.614 51H408.51V36.408C408.51 35.448 408.702 34.808 409.086 34.488C409.534 34.104 410.302 33.88 411.39 33.816C412.542 33.752 414.174 33.72 416.286 33.72V51H426.078C426.078 52.984 426.046 54.456 425.982 55.416C425.982 56.376 425.854 57.016 425.598 57.336C425.406 57.592 425.054 57.72 424.542 57.72H416.286V85.656C416.286 87 416.318 88.28 416.382 89.496C416.51 90.648 416.798 91.576 417.246 92.28C417.758 92.92 418.59 93.24 419.742 93.24C420.83 93.24 421.79 93.144 422.622 92.952C423.454 92.696 424.35 92.312 425.31 91.8C425.438 92.312 425.566 92.888 425.694 93.528C425.822 94.168 425.886 94.904 425.886 95.736C425.886 96.888 425.438 97.784 424.542 98.424C423.71 99 422.654 99.384 421.374 99.576C420.158 99.832 418.91 99.96 417.63 99.96ZM442.725 99.96C440.549 99.96 438.501 99.64 436.581 99C434.725 98.424 433.093 97.336 431.685 95.736C430.341 94.136 429.285 91.864 428.517 88.92C427.813 85.976 427.461 82.168 427.461 77.496C427.461 71.48 427.941 66.648 428.901 63C429.861 59.352 431.141 56.6 432.741 54.744C434.341 52.888 436.165 51.64 438.213 51C440.261 50.36 442.341 50.04 444.453 50.04C448.485 50.04 451.525 51.32 453.573 53.88C455.621 56.44 456.645 60.312 456.645 65.496C456.645 67.608 456.549 69.784 456.357 72.024C456.229 74.264 455.941 76.248 455.493 77.976C453.317 78.424 450.885 78.744 448.197 78.936C445.509 79.128 442.949 79.288 440.517 79.416C438.085 79.48 436.069 79.512 434.469 79.512C432.933 79.512 432.165 79.512 432.165 79.512L432.261 73.176C432.261 73.176 432.869 73.208 434.085 73.272C435.301 73.272 436.773 73.272 438.501 73.272C440.293 73.208 442.085 73.112 443.877 72.984C445.733 72.792 447.301 72.504 448.581 72.12C448.773 71.224 448.901 70.264 448.965 69.24C449.029 68.216 449.061 67.256 449.061 66.36C448.997 62.904 448.581 60.472 447.813 59.064C447.109 57.592 445.701 56.856 443.589 56.856C442.501 56.856 441.445 57.176 440.421 57.816C439.461 58.392 438.597 59.448 437.829 60.984C437.061 62.456 436.453 64.504 436.005 67.128C435.621 69.752 435.429 73.112 435.429 77.208C435.429 80.216 435.589 82.712 435.909 84.696C436.293 86.68 436.837 88.216 437.541 89.304C438.309 90.392 439.237 91.192 440.325 91.704C441.477 92.152 442.853 92.376 444.453 92.376C446.373 92.376 448.261 92.12 450.117 91.608C452.037 91.096 453.765 90.36 455.301 89.4C455.621 90.168 455.813 91.064 455.877 92.088C456.005 93.048 456.069 93.912 456.069 94.68C456.069 95.64 455.461 96.536 454.245 97.368C453.029 98.2 451.397 98.84 449.349 99.288C447.365 99.736 445.157 99.96 442.725 99.96ZM489.338 99.96C487.482 99.96 485.754 99.736 484.154 99.288C482.554 98.84 481.082 98.008 479.738 96.792C478.458 95.576 477.338 93.816 476.378 91.512C475.418 89.144 474.682 86.072 474.17 82.296C473.658 78.456 473.402 73.752 473.402 68.184C473.402 61.592 473.754 56.088 474.458 51.672C475.226 47.192 476.25 43.608 477.53 40.92C478.81 38.168 480.25 36.056 481.85 34.584C483.514 33.112 485.242 32.12 487.034 31.608C488.826 31.096 490.586 30.84 492.314 30.84C494.682 30.84 496.506 31.128 497.786 31.704C499.13 32.216 500.058 32.888 500.57 33.72C501.082 34.488 501.338 35.288 501.338 36.12C501.338 37.016 501.21 37.88 500.954 38.712C500.698 39.544 500.41 40.248 500.09 40.824C499.77 40.568 499.29 40.28 498.65 39.96C498.074 39.576 497.37 39.256 496.538 39C495.706 38.68 494.81 38.52 493.85 38.52C492.634 38.52 491.418 38.744 490.202 39.192C489.05 39.576 487.93 40.376 486.842 41.592C485.818 42.744 484.922 44.408 484.154 46.584C483.386 48.76 482.746 51.576 482.234 55.032C481.786 58.488 481.562 62.744 481.562 67.8C481.562 72.664 481.786 76.632 482.234 79.704C482.746 82.776 483.418 85.176 484.25 86.904C485.082 88.568 486.074 89.72 487.226 90.36C488.442 91 489.754 91.32 491.162 91.32C493.018 91.32 494.746 91 496.346 90.36C497.946 89.72 499.162 89.048 499.994 88.344C500.314 88.984 500.602 89.72 500.858 90.552C501.114 91.384 501.242 92.216 501.242 93.048C501.242 94.264 500.73 95.416 499.706 96.504C498.746 97.528 497.37 98.36 495.578 99C493.786 99.64 491.706 99.96 489.338 99.96ZM517.833 99.96C516.041 99.96 514.313 99.8 512.649 99.48C511.049 99.224 509.609 98.616 508.329 97.656C507.049 96.632 506.025 95.16 505.257 93.24C504.489 91.32 504.105 88.696 504.105 85.368C504.105 82.04 504.457 79.352 505.161 77.304C505.865 75.192 506.825 73.592 508.041 72.504C509.257 71.352 510.633 70.584 512.169 70.2C513.705 69.816 515.273 69.624 516.873 69.624C517.897 69.624 519.081 69.72 520.425 69.912C521.833 70.104 523.017 70.424 523.977 70.872C523.977 70.872 523.977 70.424 523.977 69.528C523.977 68.632 523.977 67.608 523.977 66.456C523.977 65.24 523.977 64.184 523.977 63.288C523.977 61.752 523.721 60.6 523.209 59.832C522.761 59 522.089 58.424 521.193 58.104C520.361 57.72 519.305 57.528 518.025 57.528C515.529 57.528 513.129 57.752 510.825 58.2C508.521 58.648 506.665 59.16 505.257 59.736C504.809 58.968 504.521 58.2 504.393 57.432C504.265 56.6 504.201 55.864 504.201 55.224C504.201 54.776 504.265 54.296 504.393 53.784C504.585 53.272 504.873 52.888 505.257 52.632C506.089 52.12 507.817 51.576 510.441 51C513.065 50.36 516.201 50.04 519.849 50.04C524.009 50.04 527.017 50.904 528.873 52.632C530.793 54.36 531.753 57.4 531.753 61.752V66.84C531.753 70.488 531.721 74.168 531.657 77.88C531.657 81.528 531.625 84.984 531.561 88.248C531.497 91.448 531.369 94.264 531.177 96.696C529.897 97.464 528.137 98.2 525.897 98.904C523.657 99.608 520.969 99.96 517.833 99.96ZM518.601 93.432C519.625 93.432 520.617 93.272 521.577 92.952C522.537 92.632 523.209 92.248 523.593 91.8C523.721 90.776 523.785 89.368 523.785 87.576C523.849 85.784 523.881 83.896 523.881 81.912C523.945 79.928 523.977 78.072 523.977 76.344C523.337 76.024 522.569 75.8 521.673 75.672C520.841 75.544 520.105 75.48 519.465 75.48C518.441 75.48 517.481 75.608 516.585 75.864C515.753 76.056 515.017 76.504 514.377 77.208C513.737 77.848 513.225 78.808 512.841 80.088C512.457 81.368 512.265 83.064 512.265 85.176C512.265 86.904 512.393 88.312 512.649 89.4C512.969 90.488 513.417 91.352 513.993 91.992C514.569 92.568 515.241 92.952 516.009 93.144C516.777 93.336 517.641 93.432 518.601 93.432ZM537.659 99V54.36C539.515 53.016 541.563 51.96 543.803 51.192C546.043 50.424 548.347 50.04 550.715 50.04C553.211 50.04 554.939 50.392 555.899 51.096C556.923 51.736 557.435 52.728 557.435 54.072C557.435 54.584 557.371 55.288 557.243 56.184C557.115 57.016 556.891 57.848 556.571 58.68C555.867 58.296 555.131 58.008 554.363 57.816C553.595 57.624 552.795 57.528 551.963 57.528C550.875 57.528 549.755 57.72 548.603 58.104C547.515 58.424 546.523 58.936 545.627 59.64L545.531 97.464C545.531 97.976 545.403 98.328 545.147 98.52C544.955 98.712 544.315 98.84 543.227 98.904C542.139 98.968 540.283 99 537.659 99ZM572.907 99.96C570.731 99.96 568.683 99.64 566.763 99C564.907 98.424 563.275 97.336 561.867 95.736C560.523 94.136 559.467 91.864 558.699 88.92C557.995 85.976 557.643 82.168 557.643 77.496C557.643 71.48 558.123 66.648 559.083 63C560.043 59.352 561.323 56.6 562.923 54.744C564.523 52.888 566.347 51.64 568.395 51C570.443 50.36 572.523 50.04 574.635 50.04C578.667 50.04 581.707 51.32 583.755 53.88C585.803 56.44 586.827 60.312 586.827 65.496C586.827 67.608 586.731 69.784 586.539 72.024C586.411 74.264 586.123 76.248 585.675 77.976C583.499 78.424 581.067 78.744 578.379 78.936C575.691 79.128 573.131 79.288 570.699 79.416C568.267 79.48 566.251 79.512 564.651 79.512C563.115 79.512 562.347 79.512 562.347 79.512L562.443 73.176C562.443 73.176 563.051 73.208 564.267 73.272C565.483 73.272 566.955 73.272 568.683 73.272C570.475 73.208 572.267 73.112 574.059 72.984C575.915 72.792 577.483 72.504 578.763 72.12C578.955 71.224 579.083 70.264 579.147 69.24C579.211 68.216 579.243 67.256 579.243 66.36C579.179 62.904 578.763 60.472 577.995 59.064C577.291 57.592 575.883 56.856 573.771 56.856C572.683 56.856 571.627 57.176 570.603 57.816C569.643 58.392 568.779 59.448 568.011 60.984C567.243 62.456 566.635 64.504 566.187 67.128C565.803 69.752 565.611 73.112 565.611 77.208C565.611 80.216 565.771 82.712 566.091 84.696C566.475 86.68 567.019 88.216 567.723 89.304C568.491 90.392 569.419 91.192 570.507 91.704C571.659 92.152 573.035 92.376 574.635 92.376C576.555 92.376 578.443 92.12 580.299 91.608C582.219 91.096 583.947 90.36 585.483 89.4C585.803 90.168 585.995 91.064 586.059 92.088C586.187 93.048 586.251 93.912 586.251 94.68C586.251 95.64 585.643 96.536 584.427 97.368C583.211 98.2 581.579 98.84 579.531 99.288C577.547 99.736 575.339 99.96 572.907 99.96Z" fill="white" fill-opacity="0.8"/>
<path d="M176.688 131.219C174.656 131.844 172.573 132.156 170.438 132.156C162.625 132.156 158.719 128.276 158.719 120.516C158.719 113.172 162.625 109.5 170.438 109.5C172.573 109.5 174.656 109.812 176.688 110.438V111.844C174.656 111.219 172.677 110.906 170.75 110.906C163.823 110.906 160.359 114.109 160.359 120.516C160.359 127.339 163.823 130.75 170.75 130.75C172.677 130.75 174.656 130.438 176.688 129.812V131.219ZM185.331 127.359C185.331 124.099 187.498 122.469 191.831 122.469C193.362 122.469 194.998 122.573 196.737 122.781V120.766C196.737 118.255 195.159 117 192.003 117C190.316 117 188.586 117.26 186.816 117.781V116.375C188.586 115.854 190.316 115.594 192.003 115.594C196.253 115.594 198.378 117.292 198.378 120.688V132H197.378L197.003 130.375C194.951 131.458 192.961 132 191.034 132C187.232 132 185.331 130.453 185.331 127.359ZM191.831 123.875C188.592 123.875 186.972 125.021 186.972 127.312C186.972 129.5 188.326 130.594 191.034 130.594C193.034 130.594 194.935 130.062 196.737 129V124.188C194.998 123.979 193.362 123.875 191.831 123.875ZM208.194 132V115.594H209.366L209.569 118.312C211.215 116.5 213.048 115.594 215.069 115.594V116.906C213.11 116.906 211.366 117.859 209.834 119.766V132H208.194ZM225.041 109.656V111.531H223.088V109.656H225.041ZM224.884 115.594V132H223.244V115.594H224.884ZM235.012 132V115.594H236.184L236.387 117.688C238.481 116.292 240.533 115.594 242.544 115.594C246.533 115.594 248.528 117.318 248.528 120.766V132H246.887V120.719C246.887 118.281 245.414 117.062 242.466 117.062C240.497 117.062 238.559 117.755 236.653 119.141V132H235.012ZM270.25 117.438C268.74 117.188 267.255 117.062 265.797 117.062C261.37 117.062 259.156 119.266 259.156 123.672C259.156 128.182 261.224 130.438 265.359 130.438C266.859 130.438 268.49 130.156 270.25 129.594V117.438ZM271.891 132C271.891 135.958 269.479 137.938 264.656 137.938C262.635 137.938 260.844 137.677 259.281 137.156V135.75C260.875 136.271 262.677 136.531 264.688 136.531C268.396 136.531 270.25 135.021 270.25 132V131.219C268.396 131.74 266.76 132 265.344 132C260.156 132 257.562 129.234 257.562 123.703C257.562 118.297 260.349 115.594 265.922 115.594C268.036 115.594 270.026 115.818 271.891 116.266V132ZM296.428 109.656V111.531H294.475V109.656H296.428ZM296.272 115.594V132H294.631V115.594H296.272ZM306.087 131.219V129.656C307.91 130.281 309.702 130.594 311.462 130.594C314.91 130.594 316.634 129.5 316.634 127.312C316.634 125.542 315.358 124.656 312.806 124.656H310.712C307.275 124.656 305.556 123.198 305.556 120.281C305.556 117.156 307.832 115.594 312.384 115.594C314.134 115.594 315.921 115.854 317.744 116.375V117.938C315.921 117.312 314.134 117 312.384 117C308.926 117 307.197 118.094 307.197 120.281C307.197 122.156 308.369 123.094 310.712 123.094H312.806C316.452 123.094 318.275 124.5 318.275 127.312C318.275 130.438 316.004 132 311.462 132C309.702 132 307.91 131.74 306.087 131.219ZM342.016 109.656V111.531H340.062V109.656H342.016ZM341.859 115.594V132H340.219V115.594H341.859ZM351.988 132V115.594H353.159L353.363 117.688C355.456 116.292 357.508 115.594 359.519 115.594C363.508 115.594 365.503 117.318 365.503 120.766V132H363.863V120.719C363.863 118.281 362.389 117.062 359.441 117.062C357.472 117.062 355.534 117.755 353.628 119.141V132H351.988ZM388.791 123.734C388.791 128.411 390.796 130.75 394.806 130.75C398.817 130.75 400.822 128.411 400.822 123.734C400.822 119.141 398.817 116.844 394.806 116.844C390.796 116.844 388.791 119.141 388.791 123.734ZM387.15 123.797C387.15 118.224 389.702 115.438 394.806 115.438C399.91 115.438 402.463 118.224 402.463 123.797C402.463 129.359 399.91 132.141 394.806 132.141C389.723 132.141 387.171 129.359 387.15 123.797ZM424.997 115.594V132H423.794L423.606 129.906C421.721 131.302 419.617 132 417.294 132C413.419 132 411.481 129.964 411.481 125.891V115.594H413.122V125.938C413.122 129 414.539 130.531 417.372 130.531C419.445 130.531 421.44 129.839 423.356 128.453V115.594H424.997ZM434.812 132V115.594H435.984L436.188 118.312C437.833 116.5 439.667 115.594 441.688 115.594V116.906C439.729 116.906 437.984 117.859 436.453 119.766V132H434.812ZM462.163 132V115.594H463.334L463.538 117.688C465.631 116.292 467.683 115.594 469.694 115.594C473.683 115.594 475.678 117.318 475.678 120.766V132H474.038V120.719C474.038 118.281 472.564 117.062 469.616 117.062C467.647 117.062 465.709 117.755 463.803 119.141V132H462.163ZM484.556 127.359C484.556 124.099 486.723 122.469 491.056 122.469C492.587 122.469 494.223 122.573 495.962 122.781V120.766C495.962 118.255 494.384 117 491.228 117C489.541 117 487.811 117.26 486.041 117.781V116.375C487.811 115.854 489.541 115.594 491.228 115.594C495.478 115.594 497.603 117.292 497.603 120.688V132H496.603L496.228 130.375C494.176 131.458 492.186 132 490.259 132C486.457 132 484.556 130.453 484.556 127.359ZM491.056 123.875C487.817 123.875 486.197 125.021 486.197 127.312C486.197 129.5 487.551 130.594 490.259 130.594C492.259 130.594 494.16 130.062 495.962 129V124.188C494.223 123.979 492.587 123.875 491.056 123.875ZM507.356 112.938H508.513L508.809 115.594H513.731V117H508.95V127.359C508.95 129.516 509.742 130.594 511.325 130.594H513.731V132H511.356C508.69 132 507.356 130.526 507.356 127.578V112.938ZM535.547 115.594V132H534.344L534.156 129.906C532.271 131.302 530.167 132 527.844 132C523.969 132 522.031 129.964 522.031 125.891V115.594H523.672V125.938C523.672 129 525.089 130.531 527.922 130.531C529.995 130.531 531.99 129.839 533.906 128.453V115.594H535.547ZM545.363 132V115.594H546.534L546.738 118.312C548.383 116.5 550.217 115.594 552.238 115.594V116.906C550.279 116.906 548.534 117.859 547.003 119.766V132H545.363ZM566.709 115.594C571.199 115.594 573.444 118.078 573.444 123.047C573.444 123.401 573.433 123.771 573.413 124.156H560.959C560.959 128.448 563.23 130.594 567.772 130.594C569.636 130.594 571.293 130.333 572.741 129.812V131.219C571.293 131.74 569.636 132 567.772 132C562.136 132 559.319 129.203 559.319 123.609C559.319 118.266 561.782 115.594 566.709 115.594ZM560.959 122.688H571.866C571.803 118.875 570.084 116.969 566.709 116.969C563.064 116.969 561.147 118.875 560.959 122.688Z" fill="white" fill-opacity="0.8"/>
</g>
<defs>
<clipPath id="clip0_0_1">
<rect width="587" height="142" fill="white"/>
</clipPath>
</defs>
</svg>
